<?xml version="1.0" standalone="no"?>
<!DOCTYPE svg PUBLIC "-//W3C//DTD SVG 20010904//EN"
 "http://www.w3.org/TR/2001/REC-SVG-20010904/DTD/svg10.dtd">
<svg version="1.0" xmlns="http://www.w3.org/2000/svg"
 width="462.000000pt" height="74.000000pt" viewBox="0 0 462.000000 74.000000"
 preserveAspectRatio="xMidYMid meet">

<g transform="translate(0.000000,74.000000) scale(0.100000,-0.100000)"
fill="#000000" stroke="none">
<path d="M1677 707 l-58 -9 3 -297 c3 -263 5 -300 21 -324 22 -33 59 -53 118
-62 l46 -7 7 39 c4 21 9 45 12 53 2 10 -6 20 -26 27 -17 6 -34 23 -40 38 -6
15 -10 137 -10 291 0 145 -3 263 -7 263 -5 -1 -34 -6 -66 -12z"/>
<path d="M4068 708 l-58 -10 0 -110 c0 -109 0 -109 -22 -101 -13 4 -51 8 -84
8 -121 -1 -194 -87 -194 -229 0 -92 17 -143 62 -188 57 -57 127 -74 250 -61
53 6 102 14 107 18 13 7 16 686 4 684 -5 -1 -34 -6 -65 -11z m-80 -324 c21 -6
22 -10 22 -135 l0 -129 -48 0 c-28 0 -57 7 -71 16 -66 46 -68 206 -4 243 20
12 67 14 101 5z"/>
<path d="M105 633 c-16 -2 -40 -6 -52 -8 l-23 -5 0 -300 0 -300 70 0 70 0 0
105 0 105 40 0 c41 0 41 0 108 -105 l67 -104 78 -1 79 0 -32 58 c-18 31 -52
85 -76 118 l-43 61 36 24 c50 33 73 81 73 152 0 109 -61 174 -184 196 -57 11
-147 12 -211 4z m204 -124 c35 -12 51 -35 51 -74 0 -60 -41 -85 -136 -85 l-54
0 0 85 0 85 54 0 c29 0 67 -5 85 -11z"/>
<path d="M1957 617 l-58 -9 3 -242 c3 -221 5 -244 23 -276 39 -66 133 -94 235
-70 l51 12 -6 42 c-10 56 -10 56 -60 49 -97 -13 -115 12 -115 163 l0 94 80 0
80 0 0 55 0 55 -80 0 -80 0 0 70 c0 39 -3 69 -7 69 -5 -1 -34 -6 -66 -12z"/>
<path d="M732 487 c-115 -44 -174 -172 -142 -307 23 -94 99 -155 207 -166 59
-6 170 9 186 25 5 5 5 30 2 55 -6 38 -11 46 -24 40 -9 -3 -48 -9 -87 -11 -76
-6 -124 10 -144 46 -20 39 -14 41 141 41 l152 0 -5 74 c-9 134 -74 204 -197
212 -31 2 -71 -2 -89 -9z m125 -112 c11 -8 26 -28 31 -45 l11 -30 -90 0 c-83
0 -89 1 -89 20 0 55 87 90 137 55z"/>
<path d="M1197 490 c-27 -5 -51 -11 -54 -13 -2 -3 -2 -25 2 -49 l7 -44 95 0
c82 1 96 -1 109 -18 8 -11 14 -29 14 -40 0 -20 -6 -21 -83 -21 -91 -1 -133
-17 -170 -67 -28 -38 -28 -118 0 -156 42 -56 76 -67 203 -66 63 1 129 6 145
11 l30 10 0 169 c0 195 -11 232 -79 267 -43 23 -145 30 -219 17z m173 -320 l0
-50 -55 0 c-42 0 -60 5 -75 20 -11 11 -20 25 -20 30 0 6 9 19 20 30 15 15 33
20 75 20 l55 0 0 -50z"/>
<path d="M2373 484 l-63 -15 0 -225 0 -224 65 0 65 0 0 186 0 187 74 -6 75 -5
10 46 c5 26 6 50 2 55 -16 16 -165 17 -228 1z"/>
<path d="M2820 491 c-86 -27 -142 -88 -160 -178 -34 -161 51 -283 207 -299 59
-6 170 9 186 25 5 5 6 30 3 56 -6 38 -10 45 -24 40 -30 -12 -119 -18 -157 -11
-40 8 -85 45 -85 71 0 13 21 15 150 15 l150 0 0 56 c0 79 -19 133 -61 175 -50
50 -139 71 -209 50z m114 -123 c13 -13 27 -33 31 -45 6 -23 5 -23 -84 -23 -57
0 -91 4 -91 10 0 18 29 68 42 73 32 13 78 6 102 -15z"/>
<path d="M3283 490 c-90 -13 -83 8 -83 -245 l0 -225 65 0 65 0 0 185 0 185 49
0 c42 0 53 -4 70 -26 19 -24 21 -40 21 -185 l0 -159 65 0 65 0 0 163 c0 185
-7 221 -52 264 -52 50 -131 62 -265 43z"/>
<path d="M4355 485 c-22 -8 -52 -28 -67 -45 -24 -26 -28 -39 -28 -89 0 -50 4
-63 28 -88 15 -17 51 -37 82 -48 72 -23 100 -41 100 -65 0 -33 -75 -38 -181
-14 -25 6 -27 3 -35 -38 -5 -23 -8 -47 -9 -53 0 -5 23 -15 50 -21 116 -27 233
-8 279 47 21 25 26 41 26 86 0 49 -4 59 -32 87 -19 19 -64 44 -106 60 -76 29
-93 46 -72 71 14 17 87 20 137 6 31 -9 31 -8 42 34 16 63 16 62 -39 74 -68 15
-126 13 -175 -4z"/>
</g>
</svg>
